<svg width="16" height="17" viewBox="0 0 16 17" fill="none" xmlns="http://www.w3.org/2000/svg">
<path fill-rule="evenodd" clip-rule="evenodd" d="M4 0.5C1.79086 0.5 0 2.29086 0 4.5V12.5C0 14.7091 1.79086 16.5 4 16.5H12C14.2091 16.5 16 14.7091 16 12.5V4.5C16 2.29086 14.2091 0.5 12 0.5H4ZM10.9084 7.07886L10.5926 9.24958H8.96316V14.5H6.77474V9.24958H5V7.07886H6.77474V5.42369C6.77474 3.54127 7.82 2.5 9.42105 2.5C9.94998 2.50699 10.4777 2.55574 11 2.64585V4.49435H10.1032C9.23474 4.49435 8.96316 5.07434 8.96316 5.66789V7.07886H10.9084Z" fill="#56BDC5"/>
</svg>
