<svg width="16" height="17" viewBox="0 0 16 17" fill="none" xmlns="http://www.w3.org/2000/svg">
<path d="M5.33397 8.5C5.33397 7.0273 6.52756 5.83312 8.00032 5.83312C9.47308 5.83312 10.6673 7.0273 10.6673 8.5C10.6673 9.9727 9.47308 11.1669 8.00032 11.1669C6.52756 11.1669 5.33397 9.9727 5.33397 8.5ZM3.89225 8.5C3.89225 10.7688 5.73143 12.6079 8.00032 12.6079C10.2692 12.6079 12.1084 10.7688 12.1084 8.5C12.1084 6.2312 10.2692 4.3921 8.00032 4.3921C5.73143 4.3921 3.89225 6.2312 3.89225 8.5ZM11.311 4.22922C11.3109 4.41909 11.3671 4.60471 11.4726 4.76263C11.578 4.92054 11.7279 5.04365 11.9033 5.11638C12.0787 5.18911 12.2717 5.2082 12.4579 5.17123C12.6442 5.13426 12.8153 5.0429 12.9496 4.90869C13.0839 4.77449 13.1754 4.60347 13.2125 4.41726C13.2497 4.23106 13.2307 4.03802 13.1581 3.86258C13.0855 3.68713 12.9625 3.53715 12.8047 3.4316C12.6469 3.32605 12.4613 3.26968 12.2714 3.2696H12.271C12.0165 3.26972 11.7724 3.37085 11.5924 3.55077C11.4124 3.7307 11.3112 3.97471 11.311 4.22922ZM4.76819 15.0118C3.98819 14.9763 3.56424 14.8464 3.2825 14.7366C2.90898 14.5912 2.64247 14.418 2.36227 14.1382C2.08207 13.8584 1.90862 13.5922 1.76385 13.2187C1.65402 12.9371 1.52409 12.513 1.48864 11.733C1.44985 10.8898 1.44211 10.6364 1.44211 8.50006C1.44211 6.36368 1.45049 6.11107 1.48864 5.2671C1.52416 4.48714 1.65504 4.0639 1.76385 3.78147C1.90926 3.40797 2.08245 3.14147 2.36227 2.86128C2.64209 2.58109 2.90834 2.40765 3.2825 2.26288C3.56411 2.15306 3.98819 2.02314 4.76819 1.98768C5.61149 1.9489 5.86481 1.94115 8.00032 1.94115C10.1358 1.94115 10.3894 1.94954 11.2334 1.98768C12.0134 2.0232 12.4367 2.15408 12.7191 2.26288C13.0926 2.40765 13.3591 2.58147 13.6393 2.86128C13.9195 3.14109 14.0923 3.40797 14.2378 3.78147C14.3476 4.06307 14.4775 4.48714 14.513 5.2671C14.5518 6.11107 14.5595 6.36368 14.5595 8.50006C14.5595 10.6364 14.5518 10.8891 14.513 11.733C14.4774 12.513 14.3469 12.9369 14.2378 13.2187C14.0923 13.5922 13.9192 13.8587 13.6393 14.1382C13.3595 14.4178 13.0926 14.5912 12.7191 14.7366C12.4375 14.8464 12.0134 14.9764 11.2334 15.0118C10.3901 15.0506 10.1368 15.0583 8.00032 15.0583C5.86385 15.0583 5.61123 15.0506 4.76819 15.0118ZM4.70195 0.548448C3.85027 0.587232 3.26829 0.722272 2.76005 0.920032C2.23369 1.12426 1.7881 1.39824 1.34284 1.84278C0.897572 2.28733 0.624281 2.7336 0.420049 3.25994C0.222281 3.76848 0.0872355 4.35011 0.0484499 5.20176C0.00902436 6.05475 0 6.32746 0 8.5C0 10.6725 0.00902436 10.9452 0.0484499 11.7982C0.0872355 12.65 0.222281 13.2315 0.420049 13.7401C0.624281 14.2661 0.897636 14.7129 1.34284 15.1572C1.78804 15.6016 2.23369 15.8752 2.76005 16.08C3.26925 16.2777 3.85027 16.4128 4.70195 16.4516C5.55542 16.4903 5.82769 16.5 8.00032 16.5C10.173 16.5 10.4457 16.491 11.2987 16.4516C12.1504 16.4128 12.732 16.2777 13.2406 16.08C13.7666 15.8752 14.2125 15.6018 14.6578 15.1572C15.1031 14.7127 15.3758 14.2661 15.5806 13.7401C15.7784 13.2315 15.914 12.6499 15.9522 11.7982C15.991 10.9446 16 10.6725 16 8.5C16 6.32746 15.991 6.05475 15.9522 5.20176C15.9134 4.35005 15.7784 3.76816 15.5806 3.25994C15.3758 2.73392 15.1024 2.28803 14.6578 1.84278C14.2132 1.39754 13.7666 1.12426 13.2412 0.920032C12.732 0.722272 12.1504 0.586592 11.2993 0.548448C10.4463 0.509664 10.1736 0.5 8.00096 0.5C5.82833 0.5 5.55542 0.509024 4.70195 0.548448Z" fill="#56BDC5"/>
</svg>
