<svg width="16" height="17" viewBox="0 0 16 17" fill="none" xmlns="http://www.w3.org/2000/svg">
<path d="M8.00004 0.500433C3.59049 0.500433 0 4.09084 0 8.50047C0 12.8234 3.45222 16.3555 7.74246 16.4927C7.82735 16.501 7.91274 16.5001 8 16.5001C8.08726 16.5001 8.17265 16.5001 8.25754 16.4927C12.5478 16.3551 16 12.823 16 8.50003C16 4.09049 12.4096 0.5 7.99997 0.5L8.00004 0.500433ZM7.27272 2.19737V4.62162H5.68942C5.80559 4.28172 5.93428 3.96534 6.07582 3.68226C6.44328 2.94733 6.86302 2.462 7.27272 2.19737ZM8.72735 2.19737C9.13726 2.46184 9.55697 2.94733 9.92424 3.68226C10.0658 3.96534 10.1945 4.28175 10.3106 4.62162H8.72735L8.72735 2.19737ZM4.9621 2.69741C4.90021 2.80699 4.83747 2.91623 4.78031 3.03071C4.54069 3.51011 4.33542 4.05007 4.16663 4.62163H2.71961C3.30706 3.82314 4.07733 3.1604 4.9621 2.69741ZM11.0379 2.69741C11.9226 3.1604 12.6929 3.82313 13.2804 4.62162H11.8333C11.6646 4.05006 11.4595 3.5101 11.2197 3.0307C11.1625 2.91622 11.0998 2.80699 11.0379 2.69741ZM1.91663 6.07626H3.84084C3.74986 6.62093 3.68645 7.18574 3.65905 7.77319H1.49234C1.55795 7.17964 1.7039 6.61046 1.91663 6.07626ZM5.31812 6.07626H7.27259V7.77319H5.10587C5.13732 7.17864 5.21747 6.61163 5.31792 6.07626H5.31812ZM8.72722 6.07626H10.6817C10.7823 6.61163 10.8623 7.17882 10.8937 7.77319H8.72702V6.07626H8.72722ZM12.159 6.07626H14.0832C14.2959 6.61063 14.4418 7.17964 14.5075 7.77319H12.3407C12.3133 7.18574 12.2499 6.62093 12.159 6.07626ZM1.49226 9.22783H3.65898C3.68637 9.81493 3.74979 10.3813 3.84076 10.9248H1.91655C1.70433 10.39 1.55719 9.82173 1.49226 9.22783ZM5.106 9.22783H7.27272V10.9248H5.31825C5.21746 10.3892 5.13731 9.82341 5.10619 9.22783H5.106ZM8.72714 9.22783H10.8939C10.8626 9.82341 10.7824 10.3892 10.6818 10.9248H8.72734V9.22783H8.72714ZM12.3409 9.22783H14.5076C14.4427 9.82173 14.2955 10.3903 14.0833 10.9248H12.1591C12.2501 10.3811 12.3135 9.81476 12.3409 9.22783ZM2.71962 12.3794H4.16664C4.33574 12.9517 4.54002 13.4821 4.78032 13.9627C4.83748 14.0772 4.90022 14.194 4.96211 14.3036C4.07552 13.8396 3.30759 13.1801 2.71962 12.3794ZM5.68942 12.3794H7.27272V14.8037C6.86298 14.5368 6.4431 14.0459 6.07583 13.3111C5.93429 13.0281 5.80559 12.7186 5.68942 12.3794ZM8.72735 12.3794H10.3107C10.1945 12.7188 10.0658 13.0282 9.92425 13.3111C9.55679 14.0459 9.13706 14.5368 8.72736 14.8037L8.72735 12.3794ZM11.8334 12.3794H13.2804C12.6925 13.1801 11.9246 13.8396 11.038 14.3036C11.0999 14.194 11.1626 14.0772 11.2198 13.9627C11.46 13.4821 11.6643 12.9517 11.8334 12.3794Z" fill="#56BDC5"/>
</svg>
